<?xml version="1.0" encoding="utf-8"?>
<!-- Generator: Adobe Illustrator 25.2.3, SVG Export Plug-In . SVG Version: 6.00 Build 0)  -->
<svg version="1.1" id="Слой_1" xmlns="http://www.w3.org/2000/svg" xmlns:xlink="http://www.w3.org/1999/xlink" x="0px" y="0px"
	 viewBox="0 0 1087 454" style="enable-background:new 0 0 1087 454;" xml:space="preserve">
<style type="text/css">
	.st0{fill:#FFFFFF;}
</style>
<g>
	<path class="st0" d="M714.54,85.3c4.1-3.23,7.46-6.13,11.06-8.68c16.24-11.47,34.07-15.33,53.54-10.77
		c10.9,2.56,19.5,8.55,25.12,18.24c1.94,3.33,3.05,2.58,5.35,0.67c12.64-10.46,26.59-18.27,43.21-20.25
		c8.85-1.05,17.64-0.66,26.21,1.98c17.45,5.39,28.28,20.45,29.49,40.95c0.18,2.99,0.21,5.99,0.21,8.99
		c0.01,77.8-0.04,155.59,0.13,233.39c0.01,4.88-1.24,6.15-6.04,5.96c-9.81-0.4-19.66-0.35-29.48-0.01
		c-4.33,0.15-5.15-1.34-5.14-5.35c0.12-74.3,0.09-148.59,0.08-222.89c0-4.83-0.04-9.68-1.7-14.31c-2.03-5.67-6.13-9.2-11.98-10.09
		c-15.98-2.42-29.18,4.49-41.79,13.06c-2.05,1.4-1.14,3.69-1.14,5.57c-0.04,75.8-0.04,151.59-0.04,227.39c0,6.51,0,6.51-6.7,6.51
		c-9.66,0-19.34-0.23-28.99,0.1c-4.34,0.15-5.15-1.37-5.14-5.37c0.11-73.96,0.08-147.93,0.08-221.89c0-0.83-0.03-1.67,0-2.5
		c1.04-22.09-11.83-25.58-28.4-22.43c-9.48,1.8-17.68,6.59-25.73,11.7c-2.56,1.62-2.22,3.79-2.22,6.07c0,28.49,0,56.97,0,85.46
		c0,47.81-0.06,95.62,0.1,143.43c0.01,4.3-0.88,5.71-5.42,5.55c-10.32-0.38-20.66-0.24-30.99-0.05c-3.3,0.06-4.61-0.59-4.6-4.31
		c0.11-93.29,0.1-186.57,0.01-279.86c0-3.44,0.81-4.56,4.39-4.49c10.83,0.24,21.66,0.22,32.49,0c3.42-0.07,4.25,1.11,4.07,4.27
		C714.36,75.76,714.54,80.2,714.54,85.3z"/>
	<path class="st0" d="M383.73,338.06c0,6.73,0,12.17,0,17.61c0,23.66-0.08,47.31,0.09,70.97c0.02,3.52-0.89,4.46-4.4,4.38
		c-10.49-0.24-21-0.29-31.49,0.02c-4.04,0.12-4.9-1.15-4.89-4.98c0.14-40.15,0.08-80.3,0.08-120.44c0-77.46,0.06-154.93-0.14-232.39
		c-0.01-5.23,1.44-6.35,6.35-6.16c10.15,0.39,20.33,0.23,30.49,0.05c2.99-0.05,4.17,0.63,3.98,3.83c-0.27,4.47-0.07,8.97-0.07,14.54
		c2.37-2.05,4.12-3.62,5.93-5.13c16.61-13.87,35.63-18.97,56.87-15.1c21.42,3.91,35.93,21.15,38.05,44.84
		c0.49,5.47,0.74,10.97,0.75,16.46c0.05,57.47,0.03,114.95,0.03,172.42c0,8.35-0.58,16.66-2.9,24.72
		c-7.95,27.63-30.45,37.02-55.53,34.77C410.57,357,396.62,350.14,383.73,338.06z M383.73,211.47c0,29.8-0.01,59.6,0.02,89.39
		c0,2.07-0.46,4.15,1.7,5.86c12.1,9.57,25.56,14.82,41.18,13.15c9.55-1.02,15.24-6.52,17.29-15.99c0.64-2.97,0.7-5.94,0.7-8.93
		c0-52.77,0-105.54,0-158.31c0-4.49,0.16-9-0.09-13.48c-0.72-12.65-7.44-19.44-20.06-20.39c-13.59-1.02-25.45,3.53-36.39,11.25
		c-3.11,2.19-4.48,4.54-4.45,8.55C383.82,152.21,383.73,181.84,383.73,211.47z"/>
	<path class="st0" d="M606.78,337.92c-3.36,2.73-5.96,4.97-8.69,7.05c-16.03,12.18-34.1,16.16-53.74,12.67
		c-19.06-3.39-30.97-16.6-33.73-36.39c-0.85-6.13-1.08-12.27-0.95-18.43c0.44-20.8-1.05-41.63,0.92-62.41
		c1.76-18.56,10.72-32.31,27.75-40.27c17.81-8.32,36.89-13.21,55.26-20.05c4.31-1.61,10.34-1.56,12.51-5.14
		c2.01-3.32,0.65-8.72,0.66-13.2c0.02-11.83,0.13-23.65-0.06-35.47c-0.25-15.89-8.04-23.92-23.85-24.69
		c-4.31-0.21-8.67-0.12-12.97,0.3c-12.19,1.19-19.34,8.29-20.37,20.61c-1.12,13.46-0.4,26.97-0.35,40.45
		c0.01,4.14-0.63,5.83-5.35,5.63c-10.14-0.43-20.32-0.14-30.48-0.12c-2.06,0-3.93,0.28-3.82-2.92c0.57-17.29-1.06-34.64,1.08-51.9
		c3.43-27.61,21.62-45.54,49.34-48.61c14.12-1.57,28.25-1.85,42.28,0.91c25.85,5.08,41.65,22.58,44.42,48.93
		c0.65,6.14,0.93,12.27,0.93,18.44c-0.03,71.95-0.01,143.9-0.04,215.85c0,7.44,1.07,6.44-6.72,6.48
		c-9.83,0.06-19.66-0.18-29.48,0.11c-3.89,0.11-4.9-1.17-4.62-4.82C607.02,346.87,606.78,342.77,606.78,337.92z M606.78,211.87
		c-14.76,6.12-29.65,10.36-43.49,17.26c-8.16,4.06-12.36,11.28-12.54,20.19c-0.36,17.81-0.42,35.64-0.09,53.46
		c0.2,10.83,6.99,16.88,17.93,17.36c12.7,0.56,23.71-4.15,34.28-10.54c2.87-1.74,4.04-3.66,4.01-7.13
		c-0.18-20.82-0.09-41.64-0.09-62.47C606.78,230.85,606.78,221.71,606.78,211.87z"/>
	<path class="st0" d="M177.85,214.91c0-26.16-0.02-52.31,0.01-78.47c0.01-10.85,0.8-21.62,3.8-32.13
		c6.05-21.23,19.84-34.18,41.54-38.31c16.52-3.15,33.18-3.1,49.66,0.17c24.04,4.77,39.41,21.8,42.83,46.56
		c0.8,5.79,1.12,11.59,1.12,17.43c-0.04,30.99-0.13,61.97,0,92.96c0.02,3.84-0.87,4.97-4.86,4.94c-29.49-0.18-58.99-0.03-88.48-0.18
		c-3.79-0.02-5.03,0.78-4.98,4.83c0.25,20.82,0.12,41.65,0.2,62.47c0.07,17.13,8.22,25.34,25.46,25.66
		c4.99,0.09,9.97,0.22,14.94-0.74c10.31-1.98,16.45-8.3,17.68-18.83c1.33-11.46,0.57-22.97,0.51-34.45
		c-0.02-4.07,1.24-4.96,5.05-4.86c10.33,0.25,20.66,0.07,30.99,0.1c1.53,0,3.56-0.63,3.48,2.16c-0.46,16.13,1.53,32.38-1.64,48.36
		c-5.16,26.04-19.33,39.89-45.81,44.64c-15.86,2.84-31.92,2.72-47.7-0.61c-28.1-5.93-43.29-25.45-43.66-56.23
		c-0.35-28.48-0.07-56.97-0.07-85.46C177.88,214.91,177.86,214.91,177.85,214.91z M218.65,154.81c0,10.15,0.1,20.31-0.06,30.46
		c-0.04,2.86,0.84,3.65,3.67,3.63c16.81-0.12,33.63-0.12,50.44,0c2.93,0.02,3.71-1.03,3.64-3.76c-0.15-5.65,0.03-11.32-0.06-16.98
		c-0.25-15.47,0.79-30.97-0.59-46.41c-0.92-10.33-6.91-16.62-16.94-18.92c-5.28-1.21-10.61-0.85-15.91-0.76
		c-15.63,0.26-23.96,8.64-24.15,24.27C218.57,135.84,218.66,145.32,218.65,154.81z"/>
	<path class="st0" d="M126.69,93.81c0,17.14-0.01,34.27,0.01,51.4c0,1.38-0.12,2.61-1.31,3.56c-10.39,8.28-19.04,18.4-28.95,27.23
		c-11.53,10.26-22.27,21.41-33.39,32.13c-1.17,1.13-2.56,2.03-4.47,3.52c3.68,3.59,7.18,7.25,10.94,10.63
		c10.97,9.86,21.47,20.23,32.37,30.14c7.47,6.78,14.14,14.42,22.22,20.53c1.59,1.2,2.65,2.67,2.63,5.02
		c-0.12,16.65-0.06,33.31-0.09,49.96c0,0.6,0.2,1.37-1.03,1.9c-2.23-1.73-4.8-3.42-7.01-5.5c-8.22-7.73-16.3-15.62-24.47-23.4
		c-12.85-12.23-25.6-24.58-38.67-36.57c-10.37-9.52-20.77-19.01-30.84-28.86c-2.05-2-3.05-3.96-3-6.91
		c0.17-10.82,0.14-21.65,0.01-32.48c-0.03-2.53,0.65-4.35,2.49-6.12c12.21-11.75,24.14-23.8,36.54-35.35
		c13.23-12.32,26.22-24.89,39.38-37.27c7.62-7.17,15.11-14.45,22.56-21.78C123.71,94.53,124.81,93.6,126.69,93.81z"/>
	<path class="st0" d="M959.57,93.66c2.21,0.17,3.27,1.16,4.35,2.22c10.25,9.95,20.49,19.9,30.8,29.79
		c15.56,14.94,30.91,30.11,46.86,44.63c7.01,6.38,13.49,13.26,20.46,19.64c1.85,1.69,2.61,3.5,2.58,6.08
		c-0.15,10.99-0.11,21.98-0.02,32.98c0.02,2.3-0.45,4.07-2.2,5.73c-15.05,14.27-29.87,28.78-45.07,42.88
		c-10.32,9.58-20.44,19.39-30.93,28.76c-8.7,7.76-16.14,16.96-25.96,23.57c-1.42-1.46-0.83-3.03-0.83-4.41
		c-0.05-14.16,0.35-28.33-0.21-42.46c-0.24-6.04,1.62-10.34,6.23-13.56c7.11-4.97,12.46-11.81,19.04-17.37
		c8.98-7.59,16.95-16.38,25.68-24.28c5.17-4.67,10.25-9.4,15.2-14.3c1.51-1.49,2.67-2.69-0.41-3.72c-0.86-0.29-1.5-1.28-2.22-1.97
		c-12.39-12.05-24.4-24.52-37.29-36c-8.42-7.5-15.56-16.33-24.67-23.04c-1.44-1.06-1.39-2.49-1.39-4
		C959.57,127.82,959.57,110.84,959.57,93.66z"/>
</g>
</svg>
