<?xml version="1.0" encoding="utf-8"?>
<!-- Generator: Adobe Illustrator 23.0.3, SVG Export Plug-In . SVG Version: 6.00 Build 0)  -->
<svg version="1.1" id="Слой_1" xmlns="http://www.w3.org/2000/svg" xmlns:xlink="http://www.w3.org/1999/xlink" x="0px" y="0px"
	 viewBox="0 0 1080 1080" style="enable-background:new 0 0 1080 1080;" xml:space="preserve">
<style type="text/css">
	.st0{fill:#171B8B;}
	.st1{font-family:'Gilroy-ExtraBold';}
	.st2{font-size:8.7892px;}
</style>
<g>
	<g>
		<path class="st0" d="M506.67,333.17c2.48-10.48,4.95-20.91,7.43-31.43c-6.96,0-13.82,0-20.79,0c0.1-0.26,0.15-0.44,0.23-0.6
			c2.73-5.22,6.98-8.31,12.83-9.15c0.55-0.08,1.11-0.1,1.66-0.1c12.72-0.01,25.43,0,38.15,0c0.27,0,0.55,0,1,0
			c-0.18,1-0.26,1.93-0.52,2.81c-1.23,4.17-5.06,7.01-9.4,7.02c-4,0.01-8.01,0.02-12.01-0.01c-0.61,0-0.85,0.17-0.98,0.77
			c-2.09,9.47-4.21,18.93-6.32,28.4c-0.15,0.69-0.29,1.38-0.49,2.06c-0.05,0.17-0.29,0.39-0.44,0.39c-3.34,0-6.68-0.02-10.02-0.04
			C506.92,333.27,506.84,333.23,506.67,333.17z"/>
		<path class="st0" d="M521.08,326.09c0.78-3.28,1.55-6.52,2.34-9.81c1.95,0,3.87-0.03,5.79,0.02c0.83,0.02,1.67,0.14,2.47,0.35
			c4.13,1.09,7.02,4.82,6.95,9.08c-0.05,3.22-0.06,6.48-1.29,9.55c-2.14,5.35-5.54,9.51-11.18,11.47c-1.63,0.56-3.3,0.85-5.03,0.84
			c-12.65-0.01-25.3-0.01-37.95-0.01c-0.27,0-0.55,0-0.96,0c0.13-0.85,0.18-1.63,0.36-2.38c1.06-4.36,5.01-7.47,9.5-7.47
			c9.87-0.01,19.73,0,29.6,0c3.19,0,5.24-1.53,6.12-4.61c0.22-0.78,0.4-1.59,0.43-2.39c0.1-2.49-1.27-4.11-3.75-4.45
			C523.4,326.13,522.28,326.15,521.08,326.09z"/>
		<path class="st0" d="M508.52,316.37c-0.3,1.27-0.58,2.43-0.86,3.59c-0.46,1.89-0.94,3.77-1.39,5.66c-0.1,0.44-0.27,0.63-0.76,0.62
			c-2.29-0.05-4.58,0.03-6.86-0.11c-4.25-0.26-7.98-3.94-8.41-8.18c-0.16-1.58-0.16-1.58,1.4-1.58c5.33,0,10.65,0,15.98,0
			C507.88,316.37,508.15,316.37,508.52,316.37z"/>
	</g>
	<g>
		<text transform="matrix(1 0 0 1 469.5625 361.6133)" class="st0 st1 st2">SAMARQAND VILOYAT</text>
		<text transform="matrix(1 0 0 1 467.8398 370.8252)" class="st0 st1 st2">YOSHLAR TEXNOPARKI</text>
	</g>
</g>
</svg>
