<svg id="Слой_1" data-name="Слой 1" xmlns="http://www.w3.org/2000/svg" viewBox="0 0 710.99 341.25"><defs><style>.cls-1{fill:#fdfdfd;}.cls-2{fill:#fff;}.cls-3{fill:#1d1d1b;}.cls-4{fill:#04163a;}</style></defs><path class="cls-1" d="M1016.11,528.49h350.32c6,0,5.68-.47,5.16,5.42-2.08,23.44-12.49,42.34-31.54,56.25-13.06,9.53-27.86,14-44,14.24H739.41c-9.68,0-19.2-1-28.25-4.5-26.46-10.25-42.85-29.21-48.9-57a88.28,88.28,0,0,1-1.35-11.9c-.16-2,.3-2.43,2.49-2.49,1.44,0,2.88,0,4.32,0Zm-40.67,38.19c-.08-1.75-.07-3.51-.27-5.25a27.89,27.89,0,0,0-.84-4.22c-2.57-9.54-10.22-15.55-19.87-15.65S937.11,547,934.4,556.28a35.38,35.38,0,0,0,0,20.31c2.76,9.28,10.42,14.76,20.07,14.69s17.09-5.81,19.74-15.13A29.68,29.68,0,0,0,975.44,566.68ZM823.38,575h-7c-4.63,0-4.87.41-3.41,4.93a12.86,12.86,0,0,0,5.29,7.19,25.39,25.39,0,0,0,25.12,1.79,11.06,11.06,0,0,0,6.47-7.84,13,13,0,0,0-3.8-13.12,21.35,21.35,0,0,0-7.32-4.45c-2.52-1-5.09-1.86-7.62-2.82a12.46,12.46,0,0,1-4.54-2.59,4,4,0,0,1,.06-5.94c3.53-3.21,10.76-2.06,11.72,2.22a12.38,12.38,0,0,0,1,2.24c3.11,0,6.14,0,9.17,0,1.5,0,1.85-.61,1.59-2.21a13.56,13.56,0,0,0-8.45-10.83,23.78,23.78,0,0,0-21.27.87c-8.66,4.54-8.55,15.16-2,20.39a30,30,0,0,0,7.9,4.42c2.37.94,4.78,1.78,7.17,2.68a10.45,10.45,0,0,1,3.71,2.14c2.23,2.15,2,6.07-.54,7.46-2.85,1.58-5.84,1.33-8.81.29-2.4-.84-3.37-2.78-3.88-5.06C823.76,576.27,823.61,575.82,823.38,575ZM1061,566.52c0,6.06,0,12.13,0,18.19,0,6.64-.93,5.82,5.84,5.81s5.67,1,5.76-5.81c0-3.83,0-7.66,0-11.49,0-1.6.37-1.92,2-1.94,3.35,0,6.7,0,10.06,0,8.29-.14,6.58,1.38,6.7-7.24a1.34,1.34,0,0,0-1.47-1.47c-2.88,0-5.75,0-8.62-.06-10.81-.26-8.47,2-8.71-9.2,0-1.75.41-2.09,2.38-2.11,4,0,8,0,12,0,7.72-.1,6.24,1.15,6.39-6.64a6.2,6.2,0,0,0-.07-1,1.22,1.22,0,0,0-1.27-1.14c-.79-.06-1.59-.07-2.39-.07h-24.9c-.64,0-1.28,0-1.92,0-1.09,0-1.81.47-1.82,1.67,0,.8,0,1.6,0,2.4Zm139.07-24.19h-18.23c-1.09,0-1.82.44-1.83,1.67,0,1.75,0,3.51,0,5.27,0,1.16.47,1.81,1.65,1.84s2.24,0,3.36,0c2.4,0,4.8,0,7.19,0,1.69,0,2,.35,2.1,1.88,0,1.11,0,2.23,0,3.35,0,8.31-.08,16.62,0,24.92.05,3-.71,6,.54,8.93,3,.61,6,.15,9,.27a1.8,1.8,0,0,0,.94-.11c.36-.23.82-.59.87-.95a19.57,19.57,0,0,0,.11-2.87V564.54c0-1.59-.06-3.19,0-4.79.13-2.68-.4-5.39.38-8,2.6-1.12,5.32-.35,8-.54,1.43-.11,2.88,0,4.32,0,1.11,0,1.82-.37,1.8-1.64,0-1.75,0-3.51,0-5.27,0-1.56-.36-1.88-2-1.88C1212.24,542.32,1206.16,542.33,1200.09,542.33Z" transform="translate(-660.85 -263.17)"/><path class="cls-2" d="M1004,376.21v5.25q0,61.89,0,123.77c0,6.3.88,5.66-5.54,5.67-8.64,0-17.28,0-25.92,0-1.6,0-2.29-.28-2.21-2.22.06-1.12,0-2.24,0-3.36V376.76c0-.8,0-1.6,0-2.4-.28-8.59,3.18-15.61,9.52-21.12,8.94-7.79,19.3-11,31.14-8.58a26.61,26.61,0,0,1,12.9,7,45.5,45.5,0,0,1,7.93,10.18A103.44,103.44,0,0,1,1038,374.3q21.45,50.51,42.92,101c.68,1.61,1.39,3.2,2.06,4.75,1.17,0,.93-.77,1-1.31,0-1.44,0-2.88,0-4.31q0-61.89,0-123.78c0-6.44-.7-5.69,5.51-5.71,7.84,0,15.68,0,23.52,0,1.12,0,2.24,0,3.36.09a1.23,1.23,0,0,1,1.17,1.26c.07,1.11.08,2.23.08,3.35,0,43.81-.06,87.63.06,131.45,0,9.75-3.93,17.29-11.37,23.17a35.17,35.17,0,0,1-27.94,7.36c-6.76-1-12.17-4.62-16.65-9.69a52.71,52.71,0,0,1-8.52-13.27c-3.24-7.12-6.35-14.3-9.41-21.5q-18.46-43.44-36.87-86.89c-.61-1.42-1.3-2.8-2-4.2Z" transform="translate(-660.85 -263.17)"/><path class="cls-2" d="M945.42,510.91h-4.09q-48.47,0-96.93,0c-4.68,0-9.27-.35-13.65-2.11-9.64-3.88-16.27-10.51-18.93-20.74a25.23,25.23,0,0,1-.66-4.25c-.13-1.75-.12-3.51-.12-5.27q0-50.6,0-101.19c0-3-.16-6.08.63-9.06C815,356,823.22,348.8,835.35,345.78a31.13,31.13,0,0,1,7.61-.88q50.14,0,100.29,0c.62,0,1.24.07,1.8.1.55.93.06,1.6-.31,2.3-4.34,8-8.76,16-13,24-1.08,2.08-2.45,2.53-4.57,2.53-18.55-.06-37.11,0-55.66,0h-23c-1.11,0-2.21.12-3.18.17a3.91,3.91,0,0,0-.63,2.9q0,17,0,34.05c0,.64,0,1.28,0,1.91,0,1,.65,1.38,1.56,1.4,1.44,0,2.87,0,4.31,0q33.6,0,67.18,0c6.72,0,5.72-.74,5.77,5.92s0,13.11,0,19.67c0,3.32-.06,3.32-3.56,3.37-1.12,0-2.24,0-3.36,0H849c-4.68,0-4.31-.33-4.31,4.47q0,15.11,0,30.21c0,1,0,1.92.06,2.87A1.14,1.14,0,0,0,846,482c1.43,0,2.87,0,4.31,0h74.38c1.12,0,2.25.09,3.36,0,1.7-.18,2.59.63,3.35,2.06,4.52,8.45,9.11,16.86,13.67,25.3A8.53,8.53,0,0,1,945.42,510.91Z" transform="translate(-660.85 -263.17)"/><path class="cls-2" d="M1210.64,345.24a3.44,3.44,0,0,1,2.27-.32c10.55,0,21.11.06,31.66-.06a5,5,0,0,1,4.93,2.82c10,16.52,20.17,33,30.28,49.44,2.67,4.36,5.33,8.73,8,13.07.5.8.84,1.77,2,2.13,1.18-1,1.78-2.44,2.59-3.75Q1310.69,378.77,1329,349c2.93-4.76,1.78-4,7.08-4,9.44,0,18.87,0,28.31,0h4.15c.54,1.78-.64,2.65-1.28,3.65q-18.48,29.15-37,58.24c-3.94,6.2-7.82,12.44-11.89,18.56a4,4,0,0,0,0,5.13c7.94,11.8,15.78,23.67,23.64,35.51q13.65,20.58,27.26,41.16c.67,1,1.76,1.88,1.68,3.27-.86.77-1.85.46-2.76.47-10.39,0-20.79-.1-31.18.08-2.65,0-4-1-5.34-3q-19.5-30.48-39.16-60.86c-.84-1.3-1.75-2.55-2.71-3.94-1.64,1.3-2.37,2.92-3.31,4.37q-19,29.4-37.9,58.82a18,18,0,0,0-1.29,2c-.92,2-2.36,2.65-4.56,2.62-9.28-.12-18.55,0-27.83-.06a30.25,30.25,0,0,1-7-.32c2.15-3.88,4.62-7.17,6.83-10.61s4.59-6.93,6.88-10.39l6.63-10,6.9-10.37q3.45-5.19,6.89-10.38l6.89-10.39c2.21-3.33,4.42-6.65,6.62-10l6.87-10.44c-17.15-27.67-35.16-54.6-51.91-82.33C1210.43,345.6,1210.58,345.4,1210.64,345.24Z" transform="translate(-660.85 -263.17)"/><path class="cls-2" d="M794.9,344.91a2.56,2.56,0,0,1-.3,2.49c-4.42,8.15-8.86,16.28-13.24,24.44a3.23,3.23,0,0,1-3.41,2c-1.11-.09-2.24,0-3.36,0H699.72c-5.48,0-5.25-.45-5.25,5.15q0,15.11,0,30.22c0,1.12,0,2.24,0,3.35s.77,1.68,1.86,1.71c1.44,0,2.88,0,4.32,0h67.68c5.85,0,5.13-.28,5.16,5.15,0,6.4,0,12.79,0,19.19,0,1.11,0,2.23-.11,3.35a1.25,1.25,0,0,1-1.27,1.18c-1.44.08-2.88.1-4.31.1H699.7c-5.78,0-5.21-.48-5.22,5.07q0,26.86,0,53.72c0,1.28,0,2.56,0,3.84,0,5.52.54,5-4.76,5h-24c-1,0-1.93,0-2.88,0-1.51-.07-1.9-.48-2-2.06,0-1.11,0-2.23,0-3.35q0-64.29,0-128.56a32.74,32.74,0,0,1,1.21-10.43c3.72-11.36,11.79-17.92,23.15-20.71a34.19,34.19,0,0,1,8.09-.89q49.44,0,98.88,0Z" transform="translate(-660.85 -263.17)"/><path class="cls-2" d="M1232.28,303.45c-2.14.24-4-.86-6-1.27a38.65,38.65,0,0,0-16.17,0c-8.27,1.81-14.42,6.56-18.75,13.76-3.1,5.15-4.6,10.85-5.65,16.68a120,120,0,0,0-1.85,20c-.16,14.86-.18,29.72-.53,44.58-.26,11.17-.43,22.35-1.22,33.52a210.5,210.5,0,0,1-10.27,51,203.82,203.82,0,0,1-9.81,24.82,13.44,13.44,0,0,1,.07-5.16c2.49-21.75,5.2-43.48,5-65.42a378.18,378.18,0,0,0-3.23-46.34,428.64,428.64,0,0,0-12.66-60.4,91.82,91.82,0,0,1-2.3-10.27c-1.3-8,.27-15.23,5.62-21.48.1-.12.22-.24.31-.36,1-1.38.85-2-.78-2.21a93.67,93.67,0,0,1-13.55-3,38.08,38.08,0,0,1-8.77-3.79,19.67,19.67,0,0,1-9.46-13.77,41,41,0,0,1-.75-10.49.93.93,0,0,1,.44-.69,1,1,0,0,1,.85.16c.72.85,1.34,1.79,2.07,2.64a22.45,22.45,0,0,0,15.38,7.86c5.13.51,10.21,0,15.31-.45,5.26-.44,10.5-1,15.77-1.29a55.44,55.44,0,0,1,15.24,1.25,33.89,33.89,0,0,1,12.28,5.17,10,10,0,0,0,7.2,1.87,35.91,35.91,0,0,1,9.09,0A19.89,19.89,0,0,1,1232.28,303.45Zm-39.23-16.83a7.93,7.93,0,0,0-1.32-.74q-8.62-1.8-17.26-3.57c-.62-.13-1.26-.2-1.68.68a13.46,13.46,0,0,0,1.42,4.85c1.84,3.69,4.47,5,8.6,4.25a11.87,11.87,0,0,0,2.28-.64A27.84,27.84,0,0,0,1193.05,286.62Z" transform="translate(-660.85 -263.17)"/><path class="cls-3" d="M975.37,566.59a29.66,29.66,0,0,1-1.23,9.46c-2.65,9.32-10.19,15.06-19.74,15.13s-17.31-5.41-20.07-14.69a35.38,35.38,0,0,1,0-20.31c2.71-9.24,10.47-14.81,20-14.71s17.31,6.1,19.87,15.64a26.74,26.74,0,0,1,.85,4.22C975.3,563.07,975.29,564.83,975.37,566.59Zm-11.77.13c-.06-4.44-.32-8.11-2-11.47a7.8,7.8,0,0,0-7.72-4.6c-3.59.09-6.21,1.73-7.4,5a31.27,31.27,0,0,0-.07,21.06,5.75,5.75,0,0,0,.39.88,7.9,7.9,0,0,0,7.36,4.45,7.67,7.67,0,0,0,7.32-4.48,17.4,17.4,0,0,0,1.39-4A25.64,25.64,0,0,0,963.6,566.72Z" transform="translate(-660.85 -263.17)"/><path class="cls-4" d="M823.31,575c.23.83.38,1.29.48,1.75.52,2.29,1.49,4.22,3.89,5.06,3,1,6,1.29,8.81-.28,2.53-1.4,2.76-5.32.54-7.47a10.45,10.45,0,0,0-3.71-2.14c-2.39-.9-4.8-1.74-7.17-2.68a30,30,0,0,1-7.9-4.42c-6.5-5.23-6.61-15.85,2-20.39a23.85,23.85,0,0,1,21.27-.87A13.58,13.58,0,0,1,850,554.43c.26,1.6-.09,2.19-1.59,2.21-3,.05-6.06,0-9.17,0a12.77,12.77,0,0,1-1-2.25c-1-4.27-8.19-5.43-11.72-2.22a4,4,0,0,0-.06,5.94,12.48,12.48,0,0,0,4.54,2.6c2.53.95,5.1,1.82,7.62,2.81A21.5,21.5,0,0,1,846,568a13,13,0,0,1,3.8,13.12,11.1,11.1,0,0,1-6.47,7.85,25.39,25.39,0,0,1-25.12-1.8,12.86,12.86,0,0,1-5.29-7.19c-1.46-4.52-1.22-4.9,3.41-4.93Z" transform="translate(-660.85 -263.17)"/><path class="cls-4" d="M1061.08,566.51V546.4c0-.8,0-1.59,0-2.39,0-1.21.74-1.65,1.83-1.68.64,0,1.27,0,1.91,0h24.91c.79,0,1.59,0,2.39.08a1.23,1.23,0,0,1,1.27,1.14,6,6,0,0,1,.06,1c-.15,7.8,1.34,6.54-6.39,6.65-4,0-8,0-12,0-2,0-2.42.36-2.38,2.1.23,11.22-2.1,8.94,8.7,9.2,2.87.07,5.75,0,8.62.06a1.35,1.35,0,0,1,1.47,1.47c-.11,8.63,1.59,7.11-6.7,7.25-3.35.06-6.71,0-10.06,0-1.67,0-2,.35-2,2,0,3.82,0,7.65,0,11.48-.09,6.8,1,5.8-5.76,5.81s-5.79.84-5.84-5.81C1061,578.63,1061.08,572.57,1061.08,566.51Z" transform="translate(-660.85 -263.17)"/><path class="cls-4" d="M1200.22,542.32c6.07,0,12.15,0,18.22,0,1.69,0,2,.32,2,1.89,0,1.75,0,3.51,0,5.27,0,1.26-.68,1.64-1.8,1.64-1.44,0-2.88-.08-4.32,0-2.65.2-5.38-.58-8,.54-.78,2.65-.25,5.37-.38,8-.07,1.59,0,3.19,0,4.79v22.05a18.2,18.2,0,0,1-.11,2.86c-.05.36-.51.72-.87,1a1.8,1.8,0,0,1-.94.11c-3-.12-6,.33-9-.28-1.25-2.9-.49-6-.53-8.92-.13-8.31,0-16.62,0-24.92,0-1.12,0-2.24,0-3.36-.07-1.52-.41-1.84-2.1-1.88-2.39,0-4.79,0-7.19,0-1.12,0-2.24,0-3.36,0s-1.67-.68-1.64-1.84c0-1.75,0-3.51,0-5.27,0-1.22.74-1.67,1.83-1.67h18.23Z" transform="translate(-660.85 -263.17)"/><polygon class="cls-2" points="283.77 303.1 284.23 307.7 285.29 312.5 286.6 315.54 288.07 317 290.19 318.32 291.81 318.77 293.94 318.92 295.65 318.57 297.22 317.91 298.44 317.15 299.6 315.94 300.46 314.57 301.12 313.21 301.67 311.44 302.38 308.31 302.63 305.98 302.68 302.44 302.48 298.9 301.97 295.77 301.22 293.29 300.31 291.42 299.24 289.95 298.08 288.89 296.51 288.03 294.9 287.63 293.03 287.48 290.8 287.78 289.13 288.38 287.36 289.7 286.5 290.76 285.69 292.28 285.04 294.45 284.48 296.52 284.07 298.8 283.77 303.1"/></svg>